<?xml version="1.0" standalone="no"?>
<!DOCTYPE svg PUBLIC "-//W3C//DTD SVG 20010904//EN"
 "http://www.w3.org/TR/2001/REC-SVG-20010904/DTD/svg10.dtd">
<svg version="1.0" xmlns="http://www.w3.org/2000/svg"
 width="768.000000pt" height="768.000000pt" viewBox="0 0 768.000000 768.000000"
 preserveAspectRatio="xMidYMid meet">
<metadata>
Created by potrace 1.14, written by Peter Selinger 2001-2017
</metadata>
<g transform="translate(0.000000,768.000000) scale(0.100000,-0.100000)"
fill="#000000" stroke="none">
<path d="M1550 5228 l0 -1802 24 -21 c13 -11 55 -44 93 -73 60 -46 461 -356
538 -416 93 -73 244 -190 269 -209 26 -20 144 -111 471 -364 55 -43 107 -83
115 -90 65 -52 702 -543 705 -543 3 0 5 321 5 713 l0 713 -128 190 c-456 675
-424 624 -394 625 15 0 138 0 275 -1 l247 -1 0 673 0 673 -123 94 c-67 52
-270 210 -451 350 -181 141 -373 290 -427 331 -349 268 -653 506 -916 717
l-303 243 0 -1802z m634 482 c36 -27 95 -72 131 -99 35 -27 70 -54 77 -60 20
-17 67 -53 143 -111 39 -30 72 -57 73 -62 2 -4 8 -8 14 -8 5 0 15 -6 22 -12 7
-7 25 -22 40 -33 15 -11 40 -30 54 -43 43 -36 51 -42 57 -42 3 0 13 -8 23 -17
10 -10 33 -29 52 -43 18 -14 39 -31 46 -37 7 -7 17 -13 22 -13 6 0 12 -7 16
-15 3 -8 12 -15 21 -15 8 0 15 -4 15 -9 0 -5 15 -19 33 -30 17 -11 46 -32 62
-45 17 -14 35 -29 40 -33 6 -5 29 -23 53 -41 l42 -34 0 -264 c0 -156 -4 -264
-9 -264 -5 0 -16 6 -23 13 -7 6 -37 30 -65 52 -29 21 -53 43 -53 48 0 4 -3 6
-8 3 -4 -2 -32 18 -62 45 -30 27 -59 49 -63 49 -5 0 -14 6 -21 13 -34 32 -67
57 -76 57 -6 0 -13 7 -16 15 -4 8 -11 15 -16 15 -6 0 -21 12 -34 28 -13 15
-24 23 -24 17 0 -6 -3 -6 -8 0 -4 6 -35 32 -69 58 -34 26 -69 54 -77 63 -9 8
-16 13 -16 9 0 -3 -10 5 -22 18 -13 14 -27 25 -31 25 -5 0 -27 16 -50 36 -59
51 -65 56 -72 56 -4 0 -12 6 -19 13 -22 21 -59 50 -121 97 -64 48 -90 68 -110
88 -8 6 -18 12 -24 12 -6 0 -15 9 -21 19 -13 25 -14 531 -1 531 6 0 39 -22 75
-50z m-54 -1301 c0 -5 4 -8 8 -5 5 3 15 -4 22 -15 8 -10 18 -19 23 -19 5 0 14
-6 22 -12 20 -20 47 -41 85 -68 19 -13 42 -32 51 -42 9 -10 19 -18 23 -18 3 0
15 -8 27 -17 47 -40 58 -49 80 -63 12 -8 29 -23 38 -32 8 -10 19 -18 24 -18 4
0 18 -11 31 -25 13 -13 26 -22 29 -18 4 3 9 -2 13 -11 3 -9 11 -16 16 -16 6 0
21 -10 32 -22 12 -13 33 -30 45 -38 23 -15 90 -66 121 -92 9 -7 34 -26 55 -43
22 -16 42 -33 43 -37 2 -4 9 -8 16 -8 6 0 18 -9 26 -20 8 -11 19 -20 25 -20 6
0 18 -8 26 -17 9 -10 29 -27 44 -38 16 -11 34 -26 41 -32 7 -7 15 -13 18 -13
3 0 14 -8 25 -17 10 -10 33 -29 50 -42 l31 -23 0 -309 c0 -208 -3 -309 -10
-309 -6 0 -21 10 -34 23 -37 35 -66 57 -75 57 -5 0 -11 7 -15 15 -3 8 -11 15
-18 15 -8 0 -20 9 -28 20 -8 11 -20 20 -28 20 -7 0 -15 7 -18 15 -4 8 -11 15
-16 15 -6 0 -18 8 -27 18 -9 9 -33 28 -53 42 -21 14 -38 28 -38 33 0 4 -5 7
-10 7 -6 0 -22 10 -35 23 -36 33 -53 47 -60 47 -4 0 -12 6 -19 13 -33 31 -67
57 -75 57 -5 0 -11 4 -13 8 -1 4 -23 23 -48 42 -25 19 -48 40 -52 45 -4 6 -11
10 -15 10 -5 0 -22 12 -38 28 -16 15 -33 27 -36 27 -3 0 -17 10 -31 23 -13 12
-39 33 -58 47 -18 14 -39 31 -46 38 -7 6 -15 12 -18 12 -5 0 -15 7 -66 51 -10
8 -31 24 -46 35 -15 10 -35 26 -44 35 -9 8 -24 18 -33 22 -15 5 -17 39 -19
307 -2 165 -1 305 0 310 5 13 32 13 32 -1z"/>
<path d="M6040 6959 c-41 -33 -93 -75 -115 -93 -139 -115 -610 -486 -841 -663
-27 -21 -264 -204 -384 -297 -30 -23 -188 -145 -350 -271 -162 -126 -328 -254
-367 -284 l-73 -56 0 -1792 c0 -986 2 -1793 4 -1793 3 0 254 191 306 233 8 7
44 35 80 62 36 27 79 61 96 75 17 14 40 32 50 40 19 15 19 50 19 1390 -1 756
1 1381 3 1387 2 7 38 39 79 70 42 32 100 77 131 100 30 24 57 41 59 39 2 -1 3
-623 3 -1380 0 -1327 1 -1377 18 -1364 31 22 158 120 352 270 l185 144 5 1389
5 1389 133 103 c73 57 133 103 135 103 1 0 2 -621 2 -1380 0 -759 2 -1380 4
-1380 3 0 30 19 60 43 31 24 154 119 274 212 l217 168 0 1799 c0 989 -3 1798
-7 1798 -5 -1 -42 -28 -83 -61z"/>
<path d="M1550 2833 l0 -408 208 -160 c114 -87 243 -187 287 -222 44 -34 229
-177 410 -318 182 -140 337 -261 345 -268 9 -6 33 -25 55 -42 22 -16 47 -35
55 -42 16 -13 365 -284 545 -423 60 -46 117 -90 125 -96 109 -88 251 -194 260
-194 6 0 111 77 233 172 382 296 868 673 1242 963 198 153 412 319 476 369 64
50 167 129 228 176 l110 85 1 408 c0 224 -2 407 -6 407 -5 0 -648 -496 -774
-597 -8 -7 -148 -115 -310 -240 -162 -125 -302 -233 -310 -240 -8 -7 -69 -54
-135 -104 -153 -118 -219 -169 -385 -299 -74 -58 -153 -118 -175 -134 -22 -17
-42 -33 -45 -36 -16 -18 -141 -110 -150 -110 -6 0 -28 14 -48 30 -30 24 -271
212 -415 323 -16 12 -115 88 -220 170 -106 82 -214 166 -242 188 -68 52 -351
272 -587 454 -106 82 -209 162 -228 177 -19 16 -39 32 -45 36 -5 4 -119 92
-252 195 -134 103 -245 187 -248 187 -3 0 -5 -183 -5 -407z"/>
</g>
</svg>
